<svg width="32" height="26" viewBox="0 0 32 26" fill="none" xmlns="http://www.w3.org/2000/svg">
<g id="carbon:notebook" clip-path="url(#clip0_993_1146)">
<path id="Vector" d="M19.4277 5.74951H27.4263V8.04639H19.4277V5.74951Z" fill="#00A0C1"/>
<path id="Vector_2" d="M19.4277 11.4917H27.4263V13.7886H19.4277V11.4917Z" fill="#00A0C1"/>
<path id="Vector_3" d="M19.4277 17.2336H27.4263V19.5305H19.4277V17.2336Z" fill="#00A0C1"/>
<path id="Vector_4" d="M29.7109 0.00732422H2.28726C1.68134 0.00793229 1.10042 0.25012 0.671972 0.680736C0.243525 1.11135 0.00255813 1.69522 0.00195312 2.3042V22.9761C0.00255813 23.5851 0.243525 24.169 0.671972 24.5996C1.10042 25.0302 1.68134 25.2724 2.28726 25.273H29.7109C30.3168 25.2721 30.8975 25.0298 31.3259 24.5992C31.7543 24.1687 31.9953 23.585 31.9962 22.9761V2.3042C31.9956 1.69522 31.7547 1.11135 31.3262 0.680736C30.8978 0.25012 30.3169 0.00793229 29.7109 0.00732422ZM2.28726 2.3042H14.8564V22.9761H2.28726V2.3042ZM17.1418 22.9761V2.3042H29.7109L29.7132 22.9761H17.1418Z" fill="#00A0C1"/>
</g>
<defs>
<clipPath id="clip0_993_1146">
<rect width="32" height="25.28" fill="white"/>
</clipPath>
</defs>
</svg>
