<svg width="29" height="27" viewBox="0 0 29 27" fill="none" xmlns="http://www.w3.org/2000/svg">
<g id="clarity:users-line" clip-path="url(#clip0_993_1109)">
<path id="Vector" d="M14.4029 12.7042C17.0034 12.7042 19.0259 10.5695 19.0259 7.94969C19.0259 5.32987 16.9071 3.29224 14.3066 3.29224C11.7062 3.29224 9.68359 5.4269 9.68359 7.94969C9.68359 10.5695 11.8025 12.7042 14.4029 12.7042ZM14.3066 5.23284C14.4029 5.23284 14.4029 5.23284 14.3066 5.23284C15.8476 5.23284 17.0997 6.49423 17.0997 8.04672C17.0997 9.5992 15.8476 10.7636 14.3066 10.7636C12.7656 10.7636 11.6099 9.50217 11.6099 8.04672C11.6099 6.49423 12.8619 5.23284 14.3066 5.23284Z" fill="#00A0C1"/>
<path id="Vector_2" d="M28.6585 12.1218C26.8286 10.4723 24.4208 9.59899 21.9166 9.69602H21.1461C20.9535 10.4723 20.6645 11.1515 20.2793 11.7337C20.8572 11.6366 21.3387 11.6366 21.9166 11.6366C23.7466 11.5396 25.5765 12.1218 27.0212 13.1891V20.1753H28.9475V12.4129L28.6585 12.1218Z" fill="#00A0C1"/>
<path id="Vector_3" d="M19.7019 3.4859C20.1835 2.32154 21.5318 1.73936 22.7839 2.22451C23.9397 2.70966 24.5175 4.06808 24.036 5.32947C23.6507 6.20275 22.7839 6.78493 21.9171 6.78493C21.7245 6.78493 21.4355 6.78493 21.2429 6.6879C21.3392 7.17305 21.3392 7.6582 21.3392 8.04632V8.6285C21.5318 8.6285 21.7245 8.72553 21.9171 8.72553C24.3249 8.72553 26.2512 6.78493 26.2512 4.4562C26.2512 2.03045 24.3249 0.0898438 22.0134 0.0898438C20.4724 0.0898438 19.124 0.866085 18.3535 2.22451C18.8351 2.5156 19.3166 2.90372 19.7019 3.4859Z" fill="#00A0C1"/>
<path id="Vector_4" d="M8.7209 11.8308C8.33565 11.2487 8.04671 10.5694 7.85408 9.7932H7.08358C4.57944 9.69617 2.17162 10.5694 0.341673 12.1219L0.0527344 12.413V20.1754H1.97899V13.1893C3.52 12.1219 5.25363 11.5397 7.08358 11.6368C7.66146 11.6368 8.23934 11.7338 8.7209 11.8308Z" fill="#00A0C1"/>
<path id="Vector_5" d="M7.08469 8.62891C7.27732 8.62891 7.46994 8.62891 7.66257 8.53187V7.94969C7.66257 7.46454 7.66257 6.97939 7.75888 6.59127C7.56625 6.6883 7.27732 6.6883 7.08469 6.6883C5.83262 6.6883 4.77318 5.62097 4.77318 4.35957C4.77318 3.09818 5.83262 2.03085 7.08469 2.03085C8.04782 2.03085 8.91464 2.61303 9.29989 3.4863C9.68514 3.00115 10.263 2.516 10.7446 2.12788C9.49251 0.0902441 6.89206 -0.588968 4.86949 0.672425C2.84692 1.93382 2.17273 4.55363 3.4248 6.59127C4.1953 7.85266 5.54368 8.62891 7.08469 8.62891Z" fill="#00A0C1"/>
<path id="Vector_6" d="M22.3013 17.9437L22.1087 17.6526C20.1824 15.518 17.4857 14.2566 14.5963 14.3536C11.7069 14.2566 8.91381 15.518 6.98755 17.6526L6.79492 17.9437V25.318C6.79492 26.1913 7.46911 26.9675 8.43224 26.9675H20.7603C21.6271 26.9675 22.3976 26.1913 22.3976 25.318V17.9437H22.3013ZM20.375 25.0269H8.72118V18.6229C10.2622 17.0705 12.3811 16.2942 14.5963 16.2942C16.7152 16.1972 18.834 17.0705 20.375 18.6229V25.0269Z" fill="#00A0C1"/>
</g>
<defs>
<clipPath id="clip0_993_1109">
<rect width="29" height="27" fill="white"/>
</clipPath>
</defs>
</svg>
