<svg width="20" height="25" viewBox="0 0 20 25" fill="none" xmlns="http://www.w3.org/2000/svg">
<g id="fa-solid:award" clip-path="url(#clip0_993_1130)">
<path id="Vector" d="M5.30552 17.7045C4.87554 17.2802 5.09968 17.3998 4.0626 17.1259C3.59205 17.0014 3.17841 16.7621 2.80434 16.4755L0.559473 21.9071C0.342259 22.433 0.747988 23.0043 1.32294 22.9828L3.92999 22.8847L5.72312 24.7538C6.11895 25.1659 6.81364 25.0375 7.03085 24.5116L9.60624 18.2802C9.06989 18.5751 8.47466 18.7479 7.85914 18.7479C6.89429 18.7479 5.98783 18.3773 5.30552 17.7045ZM19.4407 21.9071L17.1959 16.4755C16.8218 16.7626 16.4081 17.0014 15.9376 17.1259C14.8951 17.4013 15.1237 17.2812 14.6947 17.7045C14.0124 18.3773 13.1054 18.7479 12.1406 18.7479C11.525 18.7479 10.9298 18.5746 10.3935 18.2802L12.9688 24.5116C13.1861 25.0375 13.8812 25.1659 14.2766 24.7538L16.0702 22.8847L18.6773 22.9828C19.2522 23.0043 19.6579 22.4325 19.4407 21.9071ZM13.5131 16.5995C14.2692 15.8402 14.3558 15.9057 15.4324 15.6161C16.1197 15.4311 16.657 14.8915 16.8411 14.2011C17.2112 12.8144 17.1152 12.9818 18.1251 11.9672C18.6283 11.4618 18.8247 10.725 18.6406 10.0346C18.271 8.64883 18.2705 8.84219 18.6406 7.45498C18.8247 6.76455 18.6283 6.02774 18.1251 5.52237C17.1152 4.50772 17.2112 4.67471 16.8411 3.28848C16.657 2.59805 16.1197 2.0585 15.4324 1.87344C14.0529 1.50186 14.2192 1.59903 13.2083 0.58389C12.7051 0.0785187 11.9713 -0.119235 11.2841 0.0658234C9.9051 0.436917 10.0976 0.437405 8.71611 0.0658234C8.02885 -0.119235 7.29507 0.0780304 6.79187 0.58389C5.782 1.59854 5.94825 1.50186 4.56828 1.87344C3.88101 2.0585 3.34367 2.59805 3.1596 3.28848C2.78999 4.67471 2.88549 4.50772 1.87562 5.52237C1.37242 6.02774 1.17549 6.76455 1.36005 7.45498C1.72966 8.83975 1.73015 8.64639 1.36005 10.0341C1.17598 10.7245 1.37242 11.4613 1.87562 11.9672C2.88549 12.9818 2.7895 12.8144 3.1596 14.2011C3.34367 14.8915 3.88101 15.4311 4.56828 15.6161C5.67562 15.914 5.75825 15.8671 6.48708 16.5995C7.14169 17.2572 8.16145 17.3749 8.94817 16.8837C9.26277 16.6866 9.62771 16.5819 10.0003 16.5819C10.373 16.5819 10.7379 16.6866 11.0525 16.8837C11.8387 17.3749 12.8585 17.2572 13.5131 16.5995ZM5.33223 8.58975C5.33223 6.00039 7.42223 3.90127 10.0001 3.90127C12.578 3.90127 14.668 6.00039 14.668 8.58975C14.668 11.1791 12.578 13.2782 10.0001 13.2782C7.42223 13.2782 5.33223 11.1791 5.33223 8.58975Z" fill="#00A0C1"/>
</g>
<defs>
<clipPath id="clip0_993_1130">
<rect width="19" height="25" fill="white" transform="translate(0.5)"/>
</clipPath>
</defs>
</svg>
