<svg width="25" height="24" viewBox="0 0 25 24" fill="none" xmlns="http://www.w3.org/2000/svg">
<g id="ant-design:instagram-outlined" clip-path="url(#clip0_964_15190)">
<path id="Vector" d="M12.5026 5.84744C9.09756 5.84744 6.34956 8.59544 6.34956 12.0004C6.34956 15.4054 9.09756 18.1534 12.5026 18.1534C15.9076 18.1534 18.6556 15.4054 18.6556 12.0004C18.6556 8.59544 15.9076 5.84744 12.5026 5.84744ZM12.5026 15.9994C10.3006 15.9994 8.50356 14.2024 8.50356 12.0004C8.50356 9.79844 10.3006 8.00144 12.5026 8.00144C14.7046 8.00144 16.5016 9.79844 16.5016 12.0004C16.5016 14.2024 14.7046 15.9994 12.5026 15.9994ZM18.9076 4.16144C18.1126 4.16144 17.4706 4.80344 17.4706 5.59844C17.4706 6.39344 18.1126 7.03544 18.9076 7.03544C19.7026 7.03544 20.3446 6.39644 20.3446 5.59844C20.3448 5.40966 20.3078 5.22269 20.2357 5.04824C20.1635 4.87379 20.0577 4.71528 19.9242 4.5818C19.7907 4.44831 19.6322 4.34247 19.4578 4.27034C19.2833 4.19821 19.0963 4.1612 18.9076 4.16144ZM24.4966 12.0004C24.4966 10.3444 24.5116 8.70344 24.4186 7.05044C24.3256 5.13044 23.8876 3.42644 22.4836 2.02244C21.0766 0.615437 19.3756 0.180437 17.4556 0.0874372C15.7996 -0.00556279 14.1586 0.00943725 12.5056 0.00943725C10.8496 0.00943725 9.20856 -0.00556279 7.55556 0.0874372C5.63556 0.180437 3.93156 0.618437 2.52756 2.02244C1.12056 3.42944 0.685564 5.13044 0.592564 7.05044C0.499564 8.70644 0.514564 10.3474 0.514564 12.0004C0.514564 13.6534 0.499564 15.2974 0.592564 16.9504C0.685564 18.8704 1.12356 20.5744 2.52756 21.9784C3.93456 23.3854 5.63556 23.8204 7.55556 23.9134C9.21156 24.0064 10.8526 23.9914 12.5056 23.9914C14.1616 23.9914 15.8026 24.0064 17.4556 23.9134C19.3756 23.8204 21.0796 23.3824 22.4836 21.9784C23.8906 20.5714 24.3256 18.8704 24.4186 16.9504C24.5146 15.2974 24.4966 13.6564 24.4966 12.0004ZM21.8566 19.0744C21.6376 19.6204 21.3736 20.0284 20.9506 20.4484C20.5276 20.8714 20.1226 21.1354 19.5766 21.3544C17.9986 21.9814 14.2516 21.8404 12.5026 21.8404C10.7536 21.8404 7.00356 21.9814 5.42556 21.3574C4.87956 21.1384 4.47156 20.8744 4.05156 20.4514C3.62856 20.0284 3.36456 19.6234 3.14556 19.0774C2.52156 17.4964 2.66256 13.7494 2.66256 12.0004C2.66256 10.2514 2.52156 6.50144 3.14556 4.92344C3.36456 4.37744 3.62856 3.96944 4.05156 3.54944C4.47456 3.12944 4.87956 2.86244 5.42556 2.64344C7.00356 2.01944 10.7536 2.16044 12.5026 2.16044C14.2516 2.16044 18.0016 2.01944 19.5796 2.64344C20.1256 2.86244 20.5336 3.12644 20.9536 3.54944C21.3766 3.97244 21.6406 4.37744 21.8596 4.92344C22.4836 6.50144 22.3426 10.2514 22.3426 12.0004C22.3426 13.7494 22.4836 17.4964 21.8566 19.0744Z" fill="#E61F5A"/>
</g>
<defs>
<clipPath id="clip0_964_15190">
<rect width="24" height="24" fill="white" transform="translate(0.5)"/>
</clipPath>
</defs>
</svg>
